<svg xmlns="http://www.w3.org/2000/svg"  height="12" viewBox="0 0 177 12">
    <g>
        <path fill="#f8f8f8" fill-opacity=".5" width="177" d="M-1-1h182.294v1H177c-2.21 0-4.859 1.58-5.906 3.509l-.533.982C169.51 6.43 166.859 8 164.659 8H4.004A3.996 3.996 0 0 0 0 11.998v1.736h-1V-1z"/>
        <path fill="#f8f8f8" fill-opacity=".5" width="135" d="M-1-1h142.294v1H137c-2.21 0-4.859 1.58-5.906 3.509l-.533.982C129.51 6.43 126.865 8 124.649 8H4.004A3.996 3.996 0 0 0 0 11.998v1.736h-1V-1z"/>
        <path fill="#F7F7F7" width="97" d="M-1-1h102.294v1H97c-2.21 0-4.859 1.58-5.906 3.509l-.533.982C89.51 6.43 86.875 8 84.648 8H4.004A3.996 3.996 0 0 0 0 11.998v1.736h-1V-1z"/>
    </g>
</svg>
