<svg xmlns="http://www.w3.org/2000/svg" viewBox="0 0 306.5 64" height="20" class="payment-icon payment-icon--bitcoin payment-icon--bitcoin--colored">
    <path fill="#F7931A" d="M29.2 32.4l-1.9 7.7c2.4.6 9.7 2.9 10.8-1.4C39.2 34.1 31.6 33 29.2 32.4zM31.8 21.8l-1.7 7c2 .5 8.1 2.5 9.1-1.5C40.2 23.2 33.8 22.3 31.8 21.8z"/>
    <path fill="#F7931A" d="M39.7,1C22.6-3.3,5.2,7.1,1,24.3C-3.3,41.4,7.1,58.8,24.3,63c17.1,4.3,34.5-6.2,38.8-23.3h0	C67.3,22.6,56.9,5.2,39.7,1z M46.1,27.4L46.1,27.4c-0.5,3.1-2.2,4.6-4.5,5.2c3.2,1.6,4.8,4.2,3.2,8.5c-1.9,5.4-6.4,5.9-12.4,4.7	L31,51.7l-3.5-0.9l1.4-5.7c-0.9-0.2-1.8-0.5-2.8-0.7l-1.4,5.8l-3.5-0.9l1.5-5.8c-0.8-0.2-1.7-0.4-2.5-0.6l-4.6-1.1l1.7-4	c0,0,2.6,0.7,2.6,0.6c1,0.2,1.4-0.4,1.6-0.8l2.3-9.2c0.1,0,0.3,0.1,0.4,0.1c-0.1-0.1-0.3-0.1-0.4-0.1l1.6-6.6c0-0.7-0.2-1.7-1.6-2	c0.1,0-2.5-0.6-2.5-0.6l0.9-3.8l4.8,1.2l0,0c0.7,0.2,1.5,0.4,2.2,0.5l1.4-5.8l3.5,0.9l-1.4,5.7c0.9,0.2,1.9,0.4,2.8,0.7l1.4-5.6	l3.5,0.9l-1.4,5.8C43.5,20.9,46.7,23.2,46.1,27.4z"/>
    <path fill="#4D4D4D" d="M93.8 19.4c2.6 0 4.8.5 6.7 1.4 1.9.9 3.5 2.2 4.7 3.7 1.2 1.6 2.2 3.4 2.8 5.5.6 2.1.9 4.4.9 6.8 0 3.7-.7 7.3-2.1 10.6-1.4 3.3-3.3 6.2-5.6 8.7-2.4 2.5-5.2 4.4-8.4 5.8C89.5 63.3 86 64 82.2 64c-.5 0-1.3 0-2.6 0s-2.6-.1-4.2-.4c-1.6-.2-3.2-.5-5-1-1.8-.4-3.4-1-5-1.8L79.5 2 92.1 0l-5 20.9c1.1-.5 2.2-.9 3.2-1.1C91.4 19.5 92.5 19.4 93.8 19.4L93.8 19.4zM83.2 54c1.9 0 3.7-.5 5.3-1.4 1.7-.9 3.1-2.1 4.3-3.7 1.2-1.5 2.2-3.3 2.9-5.2s1.1-4 1.1-6.1c0-2.6-.4-4.6-1.3-6.1-.9-1.5-2.5-2.2-4.8-2.2-.8 0-1.7.1-3 .4-1.2.3-2.3.8-3.3 1.7l-5.3 22.2c.3.1.6.1.9.2.2.1.5.1.8.1.3 0 .6 0 1 0S82.7 54 83.2 54L83.2 54zM121.9 62.9h-12L120 20.3h12.1L121.9 62.9zM127.7 15.1c-1.7 0-3.2-.5-4.5-1.5-1.4-1-2-2.5-2-4.6 0-1.1.2-2.2.7-3.2.5-1 1.1-1.9 1.8-2.6.8-.7 1.6-1.3 2.6-1.7 1-.4 2.1-.6 3.2-.6 1.7 0 3.2.5 4.5 1.5 1.3 1 2 2.5 2 4.6 0 1.1-.2 2.2-.7 3.2-.5 1-1.1 1.9-1.8 2.6-.8.7-1.6 1.3-2.6 1.7C129.9 14.9 128.8 15.1 127.7 15.1L127.7 15.1zM142.6 9.7l12.6-1.9L152 20.3h13.4l-2.4 9.9h-13.4L146.1 45c-.3 1.2-.5 2.4-.6 3.5-.1 1.1.1 2 .4 2.8.3.8.9 1.4 1.7 1.8.8.4 2 .7 3.6.7 1.3 0 2.6-.1 3.8-.4 1.2-.2 2.4-.6 3.7-1l.9 9.2c-1.6.6-3.4 1.1-5.3 1.5-1.9.4-4.1.6-6.7.6-3.7 0-6.6-.6-8.7-1.7-2.1-1.1-3.5-2.6-4.4-4.5-.9-1.9-1.2-4.1-1.1-6.6.1-2.5.5-5.1 1.1-7.9L142.6 9.7 142.6 9.7zM165 45.9c0-3.7.6-7.1 1.8-10.4 1.2-3.2 2.9-6.1 5.1-8.5 2.2-2.4 4.9-4.3 8.1-5.7 3.1-1.4 6.7-2.1 10.6-2.1 2.4 0 4.6.2 6.5.7 1.9.5 3.7 1.1 5.2 1.8l-4.1 9.4c-1.1-.4-2.2-.8-3.4-1.2-1.2-.4-2.6-.5-4.3-.5-4 0-7.2 1.4-9.5 4.1-2.3 2.8-3.5 6.5-3.5 11.1 0 2.8.6 5 1.8 6.7 1.2 1.7 3.4 2.5 6.6 2.5 1.6 0 3.1-.2 4.5-.5 1.5-.3 2.8-.7 3.9-1.2l.9 9.6c-1.5.6-3.2 1.1-5 1.6-1.8.4-4 .7-6.6.7-3.3 0-6.2-.5-8.5-1.5-2.3-1-4.2-2.3-5.7-3.9-1.5-1.7-2.6-3.6-3.3-5.8C165.3 50.6 165 48.3 165 45.9L165 45.9zM218.2 64c-2.9 0-5.3-.4-7.5-1.3-2.1-.9-3.8-2.1-5.2-3.6-1.4-1.6-2.4-3.4-3.1-5.5-.7-2.1-1-4.5-1-7.1 0-3.2.5-6.5 1.6-9.7 1-3.2 2.6-6.2 4.7-8.7 2-2.6 4.6-4.7 7.5-6.4 3-1.6 6.4-2.5 10.2-2.5 2.8 0 5.3.4 7.4 1.3 2.1.9 3.9 2.1 5.3 3.6 1.4 1.6 2.4 3.4 3.1 5.5.7 2.1 1.1 4.5 1.1 7.1 0 3.2-.5 6.5-1.5 9.7-1 3.2-2.5 6.1-4.5 8.7-2 2.6-4.5 4.7-7.5 6.4C225.6 63.2 222.1 64 218.2 64L218.2 64zM224.2 29.3c-1.8 0-3.3.5-4.7 1.5-1.4 1-2.5 2.3-3.4 3.9-.9 1.6-1.6 3.3-2.1 5.1-.5 1.9-.7 3.6-.7 5.3 0 2.7.4 4.8 1.3 6.3.9 1.5 2.4 2.3 4.7 2.3 1.8 0 3.3-.5 4.7-1.5 1.3-1 2.5-2.3 3.4-3.9.9-1.6 1.6-3.3 2.1-5.1.5-1.9.7-3.6.7-5.3 0-2.7-.4-4.8-1.3-6.3C228 30.1 226.5 29.3 224.2 29.3L224.2 29.3zM255.2 62.9h-12l10.1-42.6h12.1L255.2 62.9zM261.1 15.1c-1.7 0-3.2-.5-4.5-1.5-1.3-1-2-2.5-2-4.6 0-1.1.2-2.2.7-3.2.5-1 1.1-1.9 1.8-2.6.8-.7 1.6-1.3 2.6-1.7 1-.4 2.1-.6 3.2-.6 1.7 0 3.2.5 4.5 1.5 1.3 1 2 2.5 2 4.6 0 1.1-.2 2.2-.7 3.2s-1.1 1.9-1.8 2.6c-.8.7-1.6 1.3-2.6 1.7C263.3 14.9 262.2 15.1 261.1 15.1zM274.1 22.2c.9-.3 1.9-.6 3-.9 1.1-.3 2.3-.7 3.7-1 1.4-.3 2.9-.5 4.6-.7 1.7-.2 3.6-.3 5.8-.3 6.3 0 10.7 1.8 13.1 5.5 2.4 3.7 2.8 8.7 1.3 15.1l-5.5 23H288l5.3-22.5c.3-1.4.6-2.8.8-4.1.2-1.3.2-2.5 0-3.5-.2-1-.7-1.8-1.5-2.4-.8-.6-2-.9-3.6-.9-1.6 0-3.2.2-4.8.5l-7.9 33h-12.1L274.1 22.2z"/>
</svg>