<svg xmlns="http://www.w3.org/2000/svg" width="46" height="36" viewBox="0 0 46 36" class="payment-icon payment-icon--mastercard">
    <g fill="none" fill-rule="nonzero">
        <path id="text" fill="#FFF" d="M8.355 35.51v-2.365c0-.906-.551-1.497-1.497-1.497-.473 0-.986.157-1.34.67-.276-.434-.67-.67-1.262-.67-.394 0-.788.118-1.103.551v-.472h-.788v3.783h.827v-2.089c0-.67.355-.985.907-.985s.827.355.827.985v2.09h.828v-2.09c0-.67.394-.985.907-.985.551 0 .827.355.827.985v2.09h.867zm12.257-3.783h-1.34v-1.143h-.827v1.143h-.75v.748h.75v1.734c0 .868.354 1.38 1.3 1.38.355 0 .75-.118 1.025-.276l-.236-.71a1.297 1.297 0 0 1-.71.198c-.394 0-.552-.237-.552-.63v-1.696h1.34v-.748zm6.976-.08c-.473 0-.788.237-.985.552v-.472h-.828v3.783h.828v-2.128c0-.63.276-.985.788-.985.158 0 .355.039.513.078l.236-.788c-.158 0-.394-.04-.552-.04zm-10.562.395c-.394-.276-.946-.394-1.537-.394-.946 0-1.577.473-1.577 1.221 0 .631.473.986 1.301 1.104l.394.04c.434.078.67.196.67.394 0 .275-.315.472-.867.472s-.985-.197-1.261-.394l-.394.631c.433.315 1.024.473 1.616.473 1.103 0 1.734-.512 1.734-1.222 0-.67-.513-1.025-1.3-1.143l-.395-.04c-.355-.039-.63-.117-.63-.354 0-.276.275-.433.709-.433.473 0 .946.197 1.182.315l.355-.67zm21.952-.394c-.473 0-.788.236-.985.551v-.472h-.828v3.783h.828v-2.128c0-.63.276-.985.788-.985.158 0 .355.039.513.078l.236-.788c-.158 0-.394-.04-.552-.04zm-10.562 1.97c0 1.143.788 1.97 2.01 1.97.552 0 .946-.117 1.34-.433l-.394-.67c-.315.237-.63.355-.985.355-.67 0-1.143-.473-1.143-1.222 0-.71.473-1.182 1.143-1.221.354 0 .67.118.985.354l.394-.67c-.394-.315-.788-.433-1.34-.433-1.222 0-2.01.827-2.01 1.97zm7.685 0v-1.891h-.827v.472c-.276-.354-.67-.551-1.183-.551-1.064 0-1.892.827-1.892 1.97s.828 1.97 1.892 1.97c.552 0 .946-.196 1.183-.55v.472h.827v-1.892zm-3.074 0c0-.67.434-1.221 1.143-1.221.67 0 1.143.512 1.143 1.221 0 .67-.473 1.222-1.143 1.222-.71 0-1.143-.552-1.143-1.222zm-9.892-1.97c-1.104 0-1.892.788-1.892 1.97 0 1.183.788 1.97 1.931 1.97.552 0 1.104-.157 1.537-.511l-.394-.592c-.315.237-.71.394-1.103.394-.513 0-1.025-.236-1.143-.906h2.798v-.315c.079-1.222-.67-2.01-1.734-2.01zm0 .749c.512 0 .867.315.946.906h-1.97c.117-.552.433-.906 1.024-.906zm20.573 1.221v-3.39h-.828V32.2c-.276-.354-.67-.551-1.182-.551-1.064 0-1.892.827-1.892 1.97s.828 1.97 1.892 1.97c.552 0 .946-.196 1.182-.55v.472h.828v-1.892zm-3.074 0c0-.67.433-1.221 1.143-1.221.67 0 1.143.512 1.143 1.221 0 .67-.473 1.222-1.143 1.222-.71 0-1.143-.552-1.143-1.222zm-27.667 0v-1.891h-.828v.472c-.276-.354-.67-.551-1.183-.551-1.064 0-1.891.827-1.891 1.97s.827 1.97 1.891 1.97c.552 0 .946-.196 1.183-.55v.472h.828v-1.892zm-3.035 0c0-.67.433-1.221 1.143-1.221.67 0 1.143.512 1.143 1.221 0 .67-.473 1.222-1.143 1.222-.71 0-1.143-.552-1.143-1.222z"/>
        <path fill="#FF5F00" d="M16.75 3.035h12.415v22.307H16.75z"/>
        <path fill="#EB001B" d="M17.538 14.188c0-4.532 2.129-8.552 5.4-11.153A14.101 14.101 0 0 0 14.188 0C6.345 0 0 6.345 0 14.188c0 7.843 6.345 14.189 14.188 14.189 3.31 0 6.346-1.143 8.75-3.035-3.271-2.601-5.4-6.621-5.4-11.154z"/>
        <path fill="#F79E1B" d="M45.915 14.188c0 7.843-6.345 14.189-14.188 14.189-3.311 0-6.346-1.143-8.75-3.035 3.271-2.601 5.4-6.621 5.4-11.154 0-4.532-2.129-8.552-5.44-11.153C25.382 1.143 28.417 0 31.728 0c7.843 0 14.188 6.345 14.188 14.188z"/>
    </g>
</svg>
