<svg xmlns="http://www.w3.org/2000/svg" width="119" height="21" viewBox="0 0 119 21" class="payment-icon payment-icon--neteller">
    <g fill="#8DC640" fill-rule="nonzero">
        <path d="M104.618 8.939c-.65.45-1.548.649-2.847.649h-1.248l.949-5.194H102.42c1.048 0 1.797.15 2.347.5.4.25.899.799.899 1.798 0 1.248-.55 1.897-1.05 2.247zM29.862 15.43h-9.687l.649-3.396h6.092l.7-3.845h-6.043l.599-3.346h9.688L29.862 15.43zm79.95-13.483c-1.449-1-3.596-1.449-6.393-1.449h-7.39l-2.747 14.932h-9.688l.6-3.396h5.842l.7-3.795h-5.843l.649-3.396h6.042l.8-4.395H80.148l-2.597 14.183h-4.494L75.654.499h-6.391l-2.597 14.182H62.27L64.868.5h-6.392L55.73 15.431h-9.788l.6-3.396h5.892l.699-3.795H47.29l.6-3.396h6.092L54.78.449H16.679l-2.147 11.835L10.187.5H3.546L0 19.825h6.342L8.489 7.64l4.195 12.185h22.721l2.747-14.931h3.545l-2.746 14.931h59.724l1.748-9.438 2.797 9.438h6.342l-2.897-7.69.65-.15c1.448-.3 2.596-.999 3.395-1.998.8-.998 1.199-2.347 1.199-3.895-.05-1.847-.7-3.196-2.098-4.144zM115.055 17.528l.849-.05c.2 0 .35-.05.45-.1.099-.05.199-.1.249-.2.05-.1.05-.2.05-.3 0-.15-.05-.249-.15-.349-.1-.1-.3-.1-.5-.1l-.948.05v1.049zm-.3 1.748l-.15-3.046 1.349-.05c.25 0 .499 0 .599.05.15.05.25.15.35.25.1.149.15.299.15.449 0 .2-.05.4-.2.549-.15.15-.35.25-.65.3.1.05.2.1.25.15.1.1.25.249.35.399l.549.799-.5.05-.449-.6c-.15-.2-.25-.3-.3-.399l-.2-.2c-.05-.05-.15-.05-.2-.05H115.005l.05 1.349h-.299z"/>
        <path d="M113.407 17.778c-.05-.65.2-1.249.599-1.698.4-.45.999-.75 1.648-.8 1.298-.05 2.397.95 2.497 2.248v.1a2.358 2.358 0 0 1-2.247 2.347c-1.299.1-2.397-.9-2.497-2.197m2.247-2.947c-.75.05-1.448.35-1.948.95-.499.548-.749 1.297-.749 2.046a2.884 2.884 0 0 0 2.997 2.697c1.548-.1 2.796-1.398 2.696-2.996-.1-1.548-1.448-2.797-2.996-2.697"/>
    </g>
</svg>
