<svg xmlns="http://www.w3.org/2000/svg" width="104" height="41" viewBox="0 0 104 41" class="payment-icon payment-icon--qiwi">
    <g fill="none" fill-rule="nonzero">
        <path fill="#F49E00" d="M20.507.132c.924.132 1.427.29 2.246.45 8.588 1.743 14.323 9.645 13.345 18.365a18.47 18.47 0 0 1-3.33 8.695c-.132.185-.238.449-.528.554-.846-2.986-2.722-4.835-5.84-5.285 1.242-.343 1.929-.211 4.043.793.713-2.352.766-4.704.158-7.056-1.48-5.813-4.941-9.962-10.623-11.997-6.739-2.405-13.16 1.427-14.429 8.483C4.15 20.929 8.59 29.65 19 30.944c.265.027.555.027.872.054-.238-.899-.396-1.718-.264-2.59.185-.08.211.106.264.185 1.56 2.431 3.885 3.62 6.686 4.043.978.159 1.956.264 2.907.476 3.937.872 6.976 2.986 8.932 6.553.211.397.423.793.264 1.269h-.158c-.74-.714-1.295-1.586-2.035-2.3-2.722-2.589-5.946-3.857-9.672-3.99-1.4-.052-2.748.08-4.096.45-3.938 1.11-7.77.581-11.575-.714-2.378-.793-4.492-2.035-6.315-3.752C2.695 28.619 1.374 26.135.58 23.36c-.237-.873-.37-1.348-.449-2.379-.026-.29-.053-.687-.08-1.163-.052-.792 0-1.294.08-2.06 0-.291.053-.582.053-.846.185-2.22.766-4.334 1.823-6.316C4.81 5.312 9.143 1.929 14.958.476c.95-.238 1.215-.344 2.219-.397.211-.026.872-.053.951-.053a11.26 11.26 0 0 1 1.824.053c.052 0 .449.053.555.053z"/>
        <path fill="#3D41B8" d="M103.405 23.255c-.925 0-1.744.026-2.696 0-.528-.027-.687.132-.66.66.026 2.51 0 5.021.026 7.532 0 .608-.106.82-.766.82-1.348-.054-1.348 0-1.348-1.349 0-2.352-.026-4.677.026-7.029 0-.528-.158-.713-.66-.66-.45.052-.899.026-1.348 0-.37-.027-1.03.052-1.057-.106-.185-.423-.08-.978-.08-1.48 0-.264.239-.212.397-.212h7.61c.265 0 .37.08.45.37.08.397.08.608.106 1.137.026.105 0 .211 0 .317zM64.215 11.575c.66-2.247 1.321-4.44 1.956-6.633.132-.502.317-.687.872-.687 1.427.026 1.453 0 1.85 1.347.58 1.982 1.189 3.99 1.823 6.158.608-2.326 1.163-4.466 1.718-6.607.079-.29.026-.793.343-.846.581-.105 1.19-.079 1.797-.026.264.026.132.29.08.423-.952 3.303-1.903 6.606-2.828 9.91-.08.317-.265.422-.582.422-1.532.053-1.532.053-1.982-1.4-.607-2.035-1.242-4.07-1.876-6.157-.317.185-.29.502-.37.74a550.447 550.447 0 0 0-1.876 6.183c-.132.45-.317.634-.82.608-1.347-.026-1.347 0-1.743-1.348-.82-2.854-1.639-5.681-2.458-8.535-.132-.476-.106-.661.45-.767 1.558-.29 1.558-.317 1.981 1.242l1.427 5.47c.027.212.027.37.238.503zM46.695 28.936c.66-2.167 1.242-4.175 1.85-6.157.132-.45.105-1.136.475-1.268.529-.212 1.19-.08 1.797-.08.37 0 .317.344.396.555l1.903 6.343c.027.105 0 .264.264.317l1.269-4.915c.053-.16.08-.344.132-.503.502-1.902.502-1.902 2.563-1.77-.343 1.189-.687 2.352-1.004 3.515a481.68 481.68 0 0 0-1.876 6.606c-.132.502-.37.66-.872.66-1.321-.026-1.321 0-1.691-1.268a532.96 532.96 0 0 0-2.009-6.5c-.713 2.298-1.348 4.439-2.035 6.58-.132.396-.052.977-.475 1.11-.502.158-1.084.052-1.639.026-.264 0-.264-.238-.317-.45-.925-3.197-1.823-6.42-2.775-9.618-.105-.397.027-.503.344-.555h.08c1.638-.318 1.638-.318 2.06 1.294.476 1.982 1.005 3.911 1.56 6.078zM86.624 26.796c0-1.586.027-3.171 0-4.757 0-.502.159-.608.634-.608 1.692.027 3.383.027 5.048 0 .555 0 .713.185.634.688a1.772 1.772 0 0 0 0 .528c.053.45-.106.608-.581.608-1.03-.027-2.062 0-3.092-.027-.423 0-.555.08-.555.529-.053 1.929-.053 1.929 1.876 1.929h.159c1.321 0 1.453.159 1.48 1.48 0 .37-.185.343-.423.343-.82 0-1.665.027-2.484 0-.476-.026-.608.159-.582.608.027.608.027 1.216 0 1.797-.026.476.159.582.608.582 1.057-.027 2.114.026 3.171-.027.502-.026.687.159.608.634a2.337 2.337 0 0 0 0 .608c.026.37-.08.555-.502.529a190.559 190.559 0 0 0-5.497 0c-.449 0-.475-.212-.475-.555-.027-1.639-.027-3.277-.027-4.89zM78.38 26.822v-4.756c0-.45.079-.661.607-.661 1.533.026 1.533-.026 1.533 1.533 0 2.22.026 4.413-.027 6.633-.026.713.212.845.846.792.687-.052 1.4.027 2.114-.026.582-.053.714.185.766.713.133 1.163.16 1.163-1.03 1.163-1.374 0-2.775-.026-4.149 0-.555.027-.66-.185-.66-.687.026-1.559 0-3.145 0-4.704zM70.16 26.77c0-1.586.027-3.172 0-4.757 0-.45.08-.608.582-.608 1.56 0 1.56-.026 1.56 1.48v6.87c0 .45.079.635.58.608.794-.052 1.613 0 2.406-.026.449-.026.713.08.713.581 0 .132.053.238.08.37.131 1.163.184.899-.82.925-1.48.027-2.96-.026-4.44.027-.502 0-.634-.159-.607-.635a295.05 295.05 0 0 1-.053-4.836zM55.442 9.725c0-1.612.026-3.224 0-4.836 0-.502.158-.634.634-.634 1.506 0 1.506-.027 1.506 1.506v8.588c0 .529-.08.74-.687.74-1.453-.053-1.453 0-1.453-1.453V9.725zM77.137 9.725c0-1.586.027-3.171-.026-4.757-.027-.581.185-.713.713-.713 1.401.026 1.401 0 1.401 1.427v8.667c0 .529-.053.74-.687.74-1.454-.053-1.454 0-1.454-1.453.053-1.295.053-2.59.053-3.911z"/>
        <path fill="#F49F02" d="M27.536 30.786c-.66 0-1.269-.66-1.269-1.347 0-.582.397-.952.952-.952.634.027 1.189.608 1.215 1.295 0 .581-.37 1.004-.898 1.004z"/>
        <path fill="#F4A107" d="M31.235 28.699c0 .185.053.449-.21.502-.239.053-.344-.159-.45-.317-.212-.37-.397-.74-.45-1.163-.026-.132-.026-.317.133-.397.185-.105.343-.026.475.106.265.185.502.82.502 1.269z"/>
        <path fill="#3D41B8" d="M52.614 11.072a7.969 7.969 0 0 0 .026-2.854c-.66-3.805-5.153-5.496-8.165-3.039-3.145 2.537-2.246 8.378 1.559 9.884 1.665.66 3.383 1.242 5.074 1.85 1.163.422 1.136.422 1.4-.793.132-.529-.026-.714-.502-.846-.66-.185-1.321-.449-2.061-.687 1.665-1.057 2.352-1.982 2.67-3.515zm-2.51.978c-.476 1.004-1.295 1.56-2.458 1.533-1.163-.026-1.93-.608-2.431-1.612a4.382 4.382 0 0 1-.45-2.3c-.026-.845.106-1.611.476-2.351.502-.951 1.295-1.506 2.405-1.48 1.11 0 1.93.502 2.405 1.48.793 1.586.766 3.198.053 4.73zM67.756 31.341c-1.083-2.775-2.114-5.576-3.145-8.377-.58-1.585-.607-1.585-2.299-1.559h-.158c-.317-.053-.45.106-.529.396-1.242 3.33-2.484 6.686-3.726 10.016-.053.132-.185.37 0 .37.582.053 1.163.053 1.718.026.396-.026.343-.449.45-.687.713-1.982.713-2.008 2.747-2.008h.45c1.559 0 1.559 0 2.114 1.48.502 1.4.502 1.374 1.982 1.11.528-.106.581-.265.396-.767zm-6.369-3.594c.476-1.321.925-2.616 1.427-4.016.503 1.427.952 2.695 1.427 4.016h-2.854z"/>
    </g>
</svg>
