<svg xmlns="http://www.w3.org/2000/svg" width="60" height="21" viewBox="0 0 60 21" class="payment-icon payment-icon--skrill">
    <path fill="#A12878" fill-rule="nonzero" d="M47.4 1.994l4.97-.894v19.035H47.4V1.994zm7.256 0V20.16h4.97V1.1l-4.97.894zM40.354 20.16h4.969V6.227h-4.97V20.16zM7.54 8.2c-.63-.053-2.077-.132-2.077-1.446 0-1.578 2.104-1.578 2.866-1.578 1.367 0 3.155.394 4.443.789 0 0 .71.263 1.315.5l.053.026V2.177l-.08-.026c-1.498-.525-3.26-1.025-6.493-1.025C1.968 1.1-.005 4.36-.005 7.173c0 1.604.684 5.39 7.1 5.837.551.026 1.971.105 1.971 1.472 0 1.105-1.183 1.762-3.155 1.762-2.182 0-4.285-.552-5.574-1.078v4.443c1.92.5 4.076.763 6.626.763 5.469 0 7.914-3.076 7.914-6.153 0-3.47-2.735-5.705-7.336-6.02zm30-2.183c-4.575.158-6.915 2.209-6.915 6.284v7.835h4.995v-6.363c0-2.445.316-3.496 3.234-3.602V6.095c-.473-.105-1.315-.079-1.315-.079zM24.078 6.2c-.105.29-.894 2.524-2.84 4.838V1.1l-5.1 1.025v18.036h5.127v-5.573c1.472 2.234 2.208 5.573 2.208 5.573H29.6c-.604-2.524-3.26-7.177-3.26-7.177 2.393-3.024 3.418-6.231 3.602-6.784h-5.863zm18.746-1.314A2.457 2.457 0 0 0 45.27 2.44a2.457 2.457 0 0 0-2.445-2.446 2.457 2.457 0 0 0-2.445 2.446 2.457 2.457 0 0 0 2.445 2.445z"/>
</svg>
