<svg xmlns="http://www.w3.org/2000/svg" width="70" height="45" viewBox="0 0 70 45" class="payment-icon payment-icon--visa">
    <g fill="none" fill-rule="nonzero">
        <path fill="#FFF" d="M0 0h69.971v44.445H0z"/>
        <path fill="#F7B600" d="M1.166 37.221h67.639v6.058H1.166z"/>
        <path fill="#1A1F71" d="M1.166 1.166h67.639v6.058H1.166zM28.248 13.897L21.25 30.58h-4.568l-3.434-13.314c-.194-.81-.389-1.134-1.036-1.458-1.037-.55-2.754-1.101-4.244-1.425l.097-.486h7.354c.939 0 1.781.616 1.976 1.685l1.814 9.685 4.47-11.338h4.568v-.032zm17.849 11.24c.032-4.405-6.09-4.632-6.026-6.608 0-.583.584-1.23 1.815-1.393.615-.064 2.332-.13 4.243.746l.745-3.531a11.286 11.286 0 0 0-4.049-.745c-4.276 0-7.256 2.267-7.289 5.507-.032 2.397 2.138 3.725 3.758 4.535 1.685.81 2.235 1.328 2.235 2.073 0 1.134-1.328 1.62-2.591 1.62-2.17.032-3.434-.583-4.438-1.07l-.778 3.661c1.004.454 2.883.875 4.795.875 4.6.032 7.58-2.203 7.58-5.67zM57.37 30.58h3.984l-3.498-16.683h-3.693c-.842 0-1.523.486-1.847 1.231L45.838 30.58h4.535l.907-2.494h5.54l.55 2.494zm-4.827-5.896l2.268-6.252 1.296 6.252h-3.564zm-18.14-10.787L30.839 30.58h-4.308l3.563-16.683h4.309z"/>
    </g>
</svg>
