<svg xmlns="http://www.w3.org/2000/svg" width="126" height="33" viewBox="0 0 126 33" class="payment-icon payment-icon--webmoney">
    <g fill="none" fill-rule="nonzero">
        <path fill="#007DC5" d="M18.377 0c1 .316 2.053.421 3.001.737 1.106.369 2.159.79 3.212 1.422-.474.421-.948.842-1.37 1.21-.262.212-.315-.052-.42-.157-.474-.474-.895-.948-1.37-1.422-.631-.632-.631-.632-1.316 0-.895.79-1.843 1.633-2.738 2.475-.316.263-.474.316-.737-.053-.527-.631-1.106-1.21-1.632-1.843-.21-.263-.316-.263-.527-.052-2.159 1.948-4.318 3.949-6.53 5.897-.262.263-.21.369 0 .58 1.317 1.421 2.581 2.895 3.897 4.264.316.316.264.474-.052.79-.474.369-1.264.737-1.211 1.264 0 .474.684.895 1.053 1.316 1 1.106 1.948 2.212 2.948 3.318.264.263.316.474-.052.684l-.053.053c-.421.421-1.264.737-1.21 1.264 0 .473.736.947 1.105 1.369 1.58 1.79 3.16 3.527 4.739 5.318.263.263.421.368.737.052 1-.947 2.054-1.895 3.054-2.843.263-.263.421-.316.737 0a48.44 48.44 0 0 0 2.686 3.054c.315.316.263.474-.106.737-6.055 4.581-14.743 4.318-20.483-.684C2.791 26.17.948 22.958.211 19.06c-.053-.21.052-.526-.211-.684v-4.16c.21-2.422 1.053-4.634 2.37-6.687C4.843 3.58 8.424 1.158 12.952.158c.474-.105 1-.053 1.475-.158h3.949zM39.597 15.112v5.108c0 .526.105 1 .579 1.316.79.526 1.843.105 2.053-.895.053-.263.053-.58.053-.895v-9.742c0-.473.105-.684.632-.631 1.527 0 1.527 0 1.527 1.527v8.793c0 .369.053.737.105 1.053.158.685.58 1 1.264.948.684 0 1.106-.369 1.264-1.053.052-.263.052-.527.052-.843V9.952c0-.474.106-.632.632-.632 1.58 0 1.58 0 1.58 1.58v9.056c0 .474-.053.948-.158 1.37-.632 2.316-3.317 3.317-5.37 1.948-.317-.211-.527-.211-.843 0-1.79 1.263-5.371.684-5.477-2.791-.105-3.58-.052-7.109-.052-10.69 0-.315.105-.42.421-.42 1.738-.106 1.738-.106 1.738 1.632v4.107zM83.669 17.903v5.318c0 .421-.105.526-.527.526-1.58 0-1.58 0-1.58-1.58v-8.793c0-.316 0-.579-.052-.895-.105-.737-.632-1.105-1.316-1.105-.685 0-1.159.42-1.317 1.158-.052.21-.052.474-.052.684v9.9c0 .473-.106.579-.58.579-1.58 0-1.58 0-1.58-1.58v-8.899c0-.315 0-.631-.104-.947-.158-.58-.58-.895-1.212-.948-.631 0-1.053.263-1.263.842-.158.369-.158.738-.158 1.106v9.794c0 .474-.106.632-.632.632-1.474 0-1.474 0-1.474-1.475v-9.372c0-1.896.947-3.212 2.632-3.58 1.053-.211 2.054-.106 2.949.579.21.157.369.21.632.052 1.211-.895 2.58-.948 3.896-.263 1.264.632 1.738 1.843 1.738 3.212.053 1.685 0 3.37 0 5.055zM120.949 21.536a272.904 272.904 0 0 1 1.58-4.897c.315-1 .684-2.054.947-3.054.106-.474.316-.58.79-.58 1.159.053 1.159 0 .79 1.107a753.195 753.195 0 0 1-3.897 11.636c-.368 1.159-.895 2.265-2.264 2.58-1.21.316-2.264 0-3.159-.737-.21-.158-.21-.316-.053-.526a.727.727 0 0 0 .158-.21c.316-.475.527-.79 1.211-.264.843.684 1.843.263 2.317-.79.474-.948.527-1.843.053-2.896-1.317-3.054-2.528-6.213-3.791-9.32-.211-.474-.158-.58.42-.58 1.528 0 1.528 0 2.107 1.423.948 2.369 1.948 4.633 2.79 7.108zM98.044 13.901c1-.58 1.948-1.053 3.001-1.106 2.212-.052 3.633 1.159 3.739 3.37.105 2.37.052 4.74.052 7.161v.21c-.526.422-1.105.106-1.632.211-.369.053-.369-.21-.316-.42v-5.898-1.264c-.105-1.158-.79-1.843-2-1.843-.896 0-1.633.316-2.318.843-.263.21-.263.42-.263.737v7.266c0 .474-.105.632-.58.58-1.42 0-1.42 0-1.42-1.422v-8.741c0-.474.105-.684.578-.527.106.053.264 0 .369 0 .527-.105.948-.052.79.843z"/>
        <path fill="#007DC5" d="M23.642 22.536c-.105.106-.21.158-.316.211-1.106 1-2.211 1.948-3.264 2.949-.211.21-.369.263-.58 0l-3-3.318c-.212-.21-.212-.316 0-.526 1.157-1 2.263-2.001 3.369-3.054.158-.158.316-.21.527 0 1 1.158 2.053 2.264 3.054 3.422 0 .053.105.158.21.316zM14.112 12.585c-.106-.106-.158-.211-.264-.264-1-1.105-1.948-2.211-2.948-3.264-.264-.316-.211-.422.052-.685a83.85 83.85 0 0 0 3.212-2.896c.264-.21.369-.263.632 0a86.754 86.754 0 0 0 2.949 3.265c.21.21.263.368 0 .632-1.159 1-2.264 2-3.37 3.001-.053.105-.158.158-.263.21zM20.799 15.744c-.106.105-.158.21-.264.263l-3.317 3.002c-.21.21-.368.21-.526 0-1-1.159-2.001-2.265-3.054-3.37-.158-.211-.21-.316 0-.527 1.158-1 2.264-2.054 3.422-3.107.158-.158.316-.158.474 0 1.053 1.159 2.054 2.317 3.107 3.476.052.105.105.158.158.263zM26.064 13.058c-.105.053-.21.106-.316.211-.79.685-1.58 1.422-2.316 2.106-.211.21-.37.264-.58 0-.684-.79-1.369-1.58-2.106-2.317-.263-.263-.21-.42.053-.631.79-.685 1.527-1.37 2.317-2.054.158-.105.263-.369.473-.053.738.896 1.527 1.738 2.317 2.58.053-.052.053 0 .158.158zM31.014 25.011c0 .158-.105.21-.21.316-.79.737-1.58 1.422-2.37 2.159-.21.21-.369.158-.527-.053-.684-.79-1.421-1.58-2.159-2.37-.21-.21-.158-.315 0-.526a104.65 104.65 0 0 0 2.475-2.211c.105-.106.21-.158.369 0 .79.842 1.527 1.737 2.317 2.58.052 0 .105.053.105.105zM25.906 16.218c.106.105.21.158.264.263.684.79 1.369 1.58 2.106 2.317.21.21.21.368 0 .526-.79.685-1.58 1.422-2.37 2.16-.21.21-.368.21-.526-.053-.685-.79-1.422-1.58-2.106-2.317-.158-.21-.264-.369 0-.58a104.65 104.65 0 0 0 2.474-2.21s.053-.054.158-.106zM20.43 9.741c-.052-.052-.158-.105-.21-.21-.738-.79-1.475-1.633-2.212-2.423-.21-.21-.21-.368.053-.526.79-.685 1.58-1.422 2.37-2.159.21-.21.368-.21.526.053.684.79 1.421 1.58 2.159 2.37.105.157.316.262.052.473-.842.79-1.737 1.527-2.58 2.317-.053 0-.105.053-.158.105z"/>
        <path fill="#017DC5" d="M30.382 11.426c0 .105-1.79 1.738-1.896 1.738-.052 0-.105-.053-.158-.106l-.21-.21c-.421-.527-1-1-1.37-1.632.58-.527 1.107-1 1.686-1.527.105-.106.21-.264.421-.053l1.474 1.632c0 .053 0 .106.053.158zM26.012 7.372c-.053-.053-.158-.106-.211-.158a345.43 345.43 0 0 1-1.369-1.527c-.158-.21-.105-.316.053-.474.21-.21.42-.421.631-.58.37-.315.685-.894 1.106-.842.369.053.685.632 1 1 .79.896.79.896-.105 1.633-.263.263-.579.526-.842.737a.924.924 0 0 1-.263.21zM32.857 17.166c0 .158-.106.21-.158.263-.474.474-1 .895-1.475 1.369-.21.158-.315.21-.473 0-.422-.474-.843-1-1.317-1.474-.21-.211-.158-.369.053-.527l1.422-1.264c.21-.21.368-.21.579.053.421.474.842.948 1.316 1.474-.053 0 0 .053.053.106z"/>
        <path fill="#007DC5" d="M70.031 16.323c-.368-1.895-1.737-3.16-3.686-3.422-1-.158-1.948.052-3 .473v-2.738c0-1.474 0-1.474-1.475-1.421-.421 0-.527.105-.527.526v12.637c0 .369.158.527.421.685.896.421 1.79.737 2.739.842 2.79.422 4.95-1 5.528-3.58a10.236 10.236 0 0 0 0-4.002zm-2.159 4.212c-.263 1.264-1.316 2.054-2.632 1.896-.158 0-.316-.053-.422-.053-1.316-.21-1.474-.42-1.474-1.685v-5.212c0-.474.158-.685.58-.79.579-.106 1.105-.421 1.684-.421 1.422.052 2.317.947 2.422 2.422.053.526 0 1.053 0 1.58 0 .737 0 1.526-.158 2.263zM113.682 21.8c-.631.315-1.369.526-2.053.526-2.001.052-3.265-.843-3.37-2.949 0-.368.053-.58.526-.526.948.052 1.843 0 2.791 0h1.264c.684-.053 1.58.315 1.896-.158.368-.474.105-1.317.052-2.001-.158-2.001-1.369-3.423-3.212-3.791-2.106-.422-4.002.42-4.897 2.211-.737 1.527-.737 3.16-.421 4.792.316 1.737 1.211 3.054 2.949 3.633 1.895.632 3.738.316 5.476-.58.474-.263.053-.473 0-.737-.158-.42-.369-.737-1-.42zm-2.738-7.53c1 .105 1.685.79 1.79 1.948.053.21 0 .474.053.684.053.422-.105.527-.474.474-.579-.052-1.158 0-1.79 0h-1.843c-.21 0-.368 0-.368-.263-.316-1.58 1.053-3.054 2.632-2.843zM59.29 22.01c-.106-.369-.316-.421-.685-.263-.684.315-1.422.579-2.159.579-2.211.052-3.37-1-3.37-3.054 0-.316.106-.421.422-.421h4.107c.632-.053 1.527.315 1.843-.106.368-.474.105-1.316.052-2-.158-2.107-1.421-3.529-3.37-3.792-2.211-.316-4.107.685-4.844 2.633-.632 1.685-.58 3.37-.105 5.107.368 1.475 1.369 2.475 2.79 2.95 1.896.631 3.686.315 5.424-.58.263-.105.263-.263.158-.474-.105-.263-.21-.421-.263-.58zm-3.423-7.74c1 .158 1.632 1 1.685 2.264.053.842.053.842-.79.842h-3.317c-.21 0-.369 0-.369-.263-.052-1.527.843-3.16 2.791-2.843zM94.305 16.27c-.526-2.158-2.211-3.475-4.528-3.475-2.264 0-3.896 1.264-4.476 3.423-.368 1.369-.316 2.685-.052 4.054.42 2.054 1.948 3.423 4.001 3.633 2.16.211 4.002-.79 4.792-2.632.421-.895.527-1.896.527-2.896 0-.738-.106-1.422-.264-2.107zm-2.053 4.108c-.21 1.316-1.264 2.158-2.58 2.106-1.37-.053-2.317-.948-2.422-2.475-.053-.527 0-1.106 0-1.632 0-.738-.053-1.422.105-2.16.316-1.316 1.21-2 2.527-2 1.317.053 2.212.842 2.422 2.159.158 1.316.158 2.685-.052 4.002z"/>
    </g>
</svg>
