<svg xmlns="http://www.w3.org/2000/svg" width="213" height="29" viewBox="0 0 213 29">
    <path
            d="M0 .231h19.496v28.116h-4.262V4.262H4.262v24.085H0V.231zm27.904 0h10.181a16.677 16.677 0 0 1 3.201.309c1.003.27 2.044.823 3.124 1.658.862.605 1.582 1.498 2.16 2.68.579 1.145.868 2.488.868 4.031 0 2.083-.733 3.979-2.198 5.689-1.53 1.825-3.729 2.75-6.595 2.777h-6.48v10.972h-4.261V.231zM38.47 13.344c1.581-.051 2.77-.54 3.567-1.465.759-.926 1.138-1.954 1.138-3.086 0-.938-.154-1.729-.463-2.372-.295-.552-.745-1.009-1.35-1.369-.9-.552-1.915-.816-3.046-.79h-6.152v9.082h6.306zm24.394 15.234c-1.106 0-2.121-.138-3.047-.414a8.28 8.28 0 0 1-2.488-1.205c-1.53-1.003-2.622-2.147-3.278-3.433l-.559-1.215a8.344 8.344 0 0 1-.212-.704c-.064-.25-.122-.517-.174-.8-.193-1.08-.289-3.252-.289-6.518 0-1.658.023-3.027.068-4.107.045-1.08.118-1.896.221-2.45.206-1.13.521-2.024.945-2.68.656-1.272 1.749-2.436 3.278-3.49C58.835.521 60.68 0 62.865 0c2.211 0 4.075.52 5.592 1.562 1.479 1.028 2.546 2.192 3.201 3.49.45.63.784 1.524 1.003 2.68.154 1.106.231 3.292.231 6.557 0 3.214-.077 5.387-.231 6.518-.219 1.157-.553 2.063-1.003 2.72-.681 1.323-1.748 2.467-3.2 3.432a8.837 8.837 0 0 1-2.517 1.205c-.92.276-1.945.414-3.076.414zm0-4.261c1.028 0 1.909-.212 2.642-.637a4.624 4.624 0 0 0 1.697-1.407c.578-.605.957-1.395 1.137-2.372.193-.926.29-2.796.29-5.612 0-1.401-.02-2.568-.058-3.5-.039-.932-.116-1.649-.232-2.15-.18-.951-.559-1.729-1.137-2.333-.425-.579-.99-1.067-1.697-1.466-.772-.36-1.652-.553-2.642-.578-1.003.051-1.858.244-2.565.578-.771.399-1.369.887-1.793 1.466-.527.578-.894 1.356-1.1 2.333-.205 1.054-.308 2.938-.308 5.65 0 1.389.026 2.546.077 3.471.052.926.129 1.64.232 2.14.205 1.004.572 1.794 1.099 2.373.424.604 1.022 1.073 1.793 1.407.682.425 1.536.637 2.565.637zM80.335.23h4.012l8.06 18.32L100.315.23h4.03v28.116h-4.262V10.818h-.077l-5.9 13.499h-3.549l-5.881-13.499h-.077v17.529h-4.262V.231zM120.1 28.578c-1.221 0-2.372-.176-3.452-.53a9.34 9.34 0 0 1-2.921-1.562 9.42 9.42 0 0 1-2.208-2.526c-.605-.996-1.035-2.157-1.292-3.48h4.493c.398 1.22 1.05 2.191 1.957 2.911.906.72 2.073 1.08 3.5 1.08 1.581 0 2.864-.395 3.847-1.186.984-.79 1.475-1.854 1.475-3.191 0-1.427-.42-2.488-1.263-3.182-.842-.694-2.08-1.042-3.712-1.042h-3.587v-3.798h3.664c1.427 0 2.53-.341 3.307-1.022.778-.682 1.167-1.697 1.167-3.047 0-1.312-.437-2.318-1.311-3.018-.874-.7-2.057-1.051-3.548-1.051-1.505 0-2.703.402-3.597 1.205-.893.804-1.526 1.867-1.9 3.192h-4.492c.514-2.713 1.674-4.78 3.48-6.2C115.513.71 117.695 0 120.253 0c1.311 0 2.526.177 3.645.53 1.118.354 2.08.858 2.883 1.514a7.052 7.052 0 0 1 1.9 2.41c.462.952.693 2.006.693 3.163 0 1.44-.337 2.68-1.012 3.722-.675 1.041-1.63 1.864-2.864 2.468 1.376.553 2.437 1.376 3.182 2.468.746 1.093 1.119 2.469 1.119 4.127 0 1.247-.241 2.375-.724 3.384a7.435 7.435 0 0 1-2.034 2.584c-.874.714-1.903 1.26-3.085 1.64-1.183.379-2.469.568-3.857.568zm25.686 0c-1.106 0-2.121-.138-3.047-.414a8.28 8.28 0 0 1-2.488-1.205c-1.53-1.003-2.622-2.147-3.278-3.433l-.56-1.215a8.344 8.344 0 0 1-.211-.704c-.064-.25-.122-.517-.174-.8-.193-1.08-.289-3.252-.289-6.518 0-1.658.022-3.027.067-4.107.045-1.08.12-1.896.222-2.45.206-1.13.52-2.024.945-2.68.656-1.272 1.749-2.436 3.278-3.49C141.755.521 143.6 0 145.785 0c2.211 0 4.075.52 5.592 1.562 1.479 1.028 2.546 2.192 3.201 3.49.45.63.784 1.524 1.003 2.68.154 1.106.231 3.292.231 6.557 0 3.214-.077 5.387-.231 6.518-.219 1.157-.553 2.063-1.003 2.72-.681 1.323-1.748 2.467-3.2 3.432a8.837 8.837 0 0 1-2.517 1.205c-.92.276-1.945.414-3.076.414zm0-4.261c1.028 0 1.909-.212 2.642-.637a4.624 4.624 0 0 0 1.697-1.407c.578-.605.957-1.395 1.137-2.372.193-.926.29-2.796.29-5.612 0-1.401-.02-2.568-.058-3.5-.039-.932-.116-1.649-.232-2.15-.18-.951-.559-1.729-1.137-2.333-.425-.579-.99-1.067-1.697-1.466-.772-.36-1.652-.553-2.642-.578-1.003.051-1.858.244-2.565.578-.771.399-1.37.887-1.793 1.466-.527.578-.894 1.356-1.1 2.333-.205 1.054-.308 2.938-.308 5.65 0 1.389.026 2.546.077 3.471.052.926.129 1.64.232 2.14.205 1.004.572 1.794 1.099 2.373.424.604 1.022 1.073 1.793 1.407.681.425 1.536.637 2.565.637zM163.255.23h4.263v12.033h11.126V.231h4.281v28.116h-4.28V16.063h-11.127v12.284h-4.262V.231zm35.367 0h3.568l10.22 28.116h-4.493l-2.18-6.286h-10.663l-2.16 6.286h-4.512L198.622.231zm5.901 18.05l-4.069-12.284h-.077l-4.069 12.284h8.215z"/>
</svg>
