<svg xmlns="http://www.w3.org/2000/svg" width="80" height="80" viewBox="0 0 80 80">
    <g fill="none" fill-rule="evenodd" stroke-linecap="round" stroke-width="2">
        <g stroke="#FFF">
            <path d="M15 39.888V16a5 5 0 0 1 5-5h50a5 5 0 0 1 5 5v31a5 5 0 0 1-5 5H26.053M35.391 52h19.218l3.32 12.31A2 2 0 0 1 56 66.831H34.001a2 2 0 0 1-1.931-2.52L35.39 52zM8 45.831L75 46"/>
        </g>
        <path stroke="#FFF" d="M34 61h22M9 65h16"/>
        <rect width="18" height="32" x="8" y="40" stroke="#FFF" rx="4"/>
        <path stroke="#20A86B" d="M28 37l11.527-9.851 8.292 5.477L62.024 21.19"/>
    </g>
</svg>
