<svg xmlns="http://www.w3.org/2000/svg" width="80" height="80" viewBox="0 0 80 80">
    <g fill="none" fill-rule="evenodd" stroke-linecap="round" stroke-width="2">
        <path stroke="#FFF" d="M6.87 32.217L33.993 21.23a16 16 0 0 1 12.014 0L73.13 32.217a3 3 0 0 1-.001 5.562L45.999 48.75a16 16 0 0 1-11.998 0L6.871 37.779a3 3 0 0 1-.001-5.562zM19 56c0 5.22 12.673 9.45 21 9.45S61 61.22 61 56"/>
        <path stroke="#FFF" d="M19 49c0 5.22 12.673 9.45 21 9.45S61 54.22 61 49M60.8 43.5L61 56M19 43.5V56"/>
        <path stroke="#20A86B" d="M17 67.284C17 64.997 15.21 59 13 59s-4 5.997-4 8.284c0 2.288 8 2.288 8 0zM40.029 33l-25.506 6.261A2 2 0 0 0 13 41.204v17.753"/>
    </g>
</svg>
