<svg xmlns="http://www.w3.org/2000/svg" xmlns:xlink="http://www.w3.org/1999/xlink" width="336" height="665"><defs><linearGradient id="a" x1="100%" x2="2.533%" y1="50%" y2="50%"><stop offset="0%"/><stop offset="100%" stop-color="#888"/></linearGradient><path id="b" d="M2.28 106.205a2.28 2.28 0 0 1 2.28 2.28v42.474a2.28 2.28 0 1 1-4.56 0v-42.473a2.28 2.28 0 0 1 2.28-2.28zm0-59.171a2.28 2.28 0 0 1 2.28 2.28v42.473a2.28 2.28 0 0 1-4.56 0V49.314a2.28 2.28 0 0 1 2.28-2.28zM2.28 0a2.28 2.28 0 0 1 2.28 2.28v19.715a2.28 2.28 0 0 1-4.56 0V2.28A2.28 2.28 0 0 1 2.28 0z"/><filter id="c" width="121.9%" height="100.7%" x="-11%" y="-.3%" filterUnits="objectBoundingBox"><feOffset dx="1" in="SourceAlpha" result="shadowOffsetInner1"/><feComposite in="shadowOffsetInner1" in2="SourceAlpha" k2="-1" k3="1" operator="arithmetic" result="shadowInnerInner1"/><feColorMatrix in="shadowInnerInner1" values="0 0 0 0 0 0 0 0 0 0 0 0 0 0 0 0 0 0 0.2 0"/></filter><linearGradient id="d" x1="100%" x2="0%" y1="50%" y2="50%"><stop offset="0%"/><stop offset="97.467%" stop-color="#888"/></linearGradient><rect id="e" width="4.561" height="72.826" x="324.579" y="63.723" rx="2.28"/><filter id="f" width="121.9%" height="101.4%" x="-11%" y="-.7%" filterUnits="objectBoundingBox"><feOffset dx="1" in="SourceAlpha" result="shadowOffsetInner1"/><feComposite in="shadowOffsetInner1" in2="SourceAlpha" k2="-1" k3="1" operator="arithmetic" result="shadowInnerInner1"/><feColorMatrix in="shadowInnerInner1" values="0 0 0 0 0 0 0 0 0 0 0 0 0 0 0 0 0 0 0.2 0"/></filter><linearGradient id="i" x1="50%" x2="50%" y1="100%" y2="0%"><stop offset="0%" stop-opacity="0"/><stop offset="100%" stop-opacity=".3"/></linearGradient><rect id="h" width="324.579" height="655.438" x="2.28" rx="48.664"/><filter id="g" width="106.5%" height="103.2%" x="-3.2%" y="-1.1%" filterUnits="objectBoundingBox"><feOffset dy="3" in="SourceAlpha" result="shadowOffsetOuter1"/><feGaussianBlur in="shadowOffsetOuter1" result="shadowBlurOuter1" stdDeviation="3"/><feComposite in="shadowBlurOuter1" in2="SourceAlpha" operator="out" result="shadowBlurOuter1"/><feColorMatrix in="shadowBlurOuter1" values="0 0 0 0 0.121568627 0 0 0 0 0.117647059 0 0 0 0 0.301960784 0 0 0 0.24 0"/></filter><filter id="j" width="106.5%" height="103.2%" x="-3.2%" y="-1.1%" filterUnits="objectBoundingBox"><feGaussianBlur in="SourceAlpha" result="shadowBlurInner1" stdDeviation="4.5"/><feOffset in="shadowBlurInner1" result="shadowOffsetInner1"/><feComposite in="shadowOffsetInner1" in2="SourceAlpha" k2="-1" k3="1" operator="arithmetic" result="shadowInnerInner1"/><feColorMatrix in="shadowInnerInner1" values="0 0 0 0 1 0 0 0 0 1 0 0 0 0 1 0 0 0 0.3 0"/></filter><linearGradient id="m" x1="50%" x2="50%" y1="50%" y2="97.276%"><stop offset="0%" stop-color="#0D0D0D"/><stop offset="100%" stop-color="#0A0A0A"/></linearGradient><linearGradient id="n" x1="50%" x2="50%" y1="0%" y2="98.471%"><stop offset="0%" stop-opacity="0"/><stop offset="100%" stop-opacity=".2"/></linearGradient><linearGradient id="p" x1="50%" x2="50%" y1="0%" y2="100%"><stop offset="0%" stop-color="#111" stop-opacity=".6"/><stop offset="100%"/></linearGradient><rect id="k" width="312.417" height="643.3" rx="45.622"/><filter id="l" width="103.4%" height="101.6%" x="-1.7%" y="-.8%" filterUnits="objectBoundingBox"><feMorphology in="SourceAlpha" operator="dilate" radius=".76" result="shadowSpreadOuter1"/><feOffset in="shadowSpreadOuter1" result="shadowOffsetOuter1"/><feGaussianBlur in="shadowOffsetOuter1" result="shadowBlurOuter1" stdDeviation="1.5"/><feComposite in="shadowBlurOuter1" in2="SourceAlpha" operator="out" result="shadowBlurOuter1"/><feColorMatrix in="shadowBlurOuter1" values="0 0 0 0 0 0 0 0 0 0 0 0 0 0 0 0 0 0 0.2 0"/></filter><filter id="o" width="105.3%" height="102.6%" x="-2.6%" y="-1.3%" filterUnits="objectBoundingBox"><feGaussianBlur in="SourceAlpha" result="shadowBlurInner1" stdDeviation="4.5"/><feOffset in="shadowBlurInner1" result="shadowOffsetInner1"/><feComposite in="shadowOffsetInner1" in2="SourceAlpha" k2="-1" k3="1" operator="arithmetic" result="shadowInnerInner1"/><feColorMatrix in="shadowInnerInner1" values="0 0 0 0 1 0 0 0 0 1 0 0 0 0 1 0 0 0 0.15 0"/></filter><linearGradient id="q" x1="0%" y1="50%" y2="50%"><stop offset="0%" stop-color="#FFF" stop-opacity="0"/><stop offset="7.202%" stop-color="#FFF" stop-opacity=".5"/><stop offset="100%" stop-color="#FFF" stop-opacity="0"/></linearGradient><linearGradient id="u" x1="50%" x2="50%" y1="100%" y2="0%"><stop offset="0%" stop-color="#222"/><stop offset="100%" stop-color="#111"/></linearGradient><ellipse id="t" cx="4.941" cy="4.931" rx="4.941" ry="4.931"/><filter id="s" width="110.1%" height="120.3%" x="-5.1%" y="-5.1%" filterUnits="objectBoundingBox"><feOffset dy="1" in="SourceAlpha" result="shadowOffsetOuter1"/><feColorMatrix in="shadowOffsetOuter1" values="0 0 0 0 1 0 0 0 0 1 0 0 0 0 1 0 0 0 0.1 0"/></filter><linearGradient id="v" x1="50%" x2="50%" y1="100%" y2="0%"><stop offset="0%" stop-color="#222"/><stop offset="100%"/></linearGradient><linearGradient id="x" x1="50%" x2="50%" y1="100%" y2=".273%"><stop offset="0%" stop-color="#090E1A"/><stop offset="100%" stop-color="#2D5283"/></linearGradient><ellipse id="w" cx="4.941" cy="4.931" rx="2.66" ry="2.655"/><linearGradient id="y" x1="50%" x2="50%" y1="100%" y2=".273%"><stop offset="0%"/><stop offset="100%" stop-color="#67A3E7"/></linearGradient><linearGradient id="C" x1="50%" x2="50%" y1="100%" y2="0%"><stop offset="0%" stop-color="#333"/><stop offset="100%" stop-color="#111"/></linearGradient><rect id="B" width="40.287" height="5.31" y="2.276" rx="2.655"/><filter id="A" width="102.5%" height="137.7%" x="-1.2%" y="-9.4%" filterUnits="objectBoundingBox"><feOffset dy="1" in="SourceAlpha" result="shadowOffsetOuter1"/><feColorMatrix in="shadowOffsetOuter1" values="0 0 0 0 1 0 0 0 0 1 0 0 0 0 1 0 0 0 0.1 0"/></filter></defs><g fill="none" fill-rule="evenodd" transform="rotate(90 165.5 168.5)"><rect width="651.439" height="320.876" x="1.521" y="4.802" stroke="#000" stroke-width="1.521" rx="76.037"/><g transform="rotate(-90 210.184 120.387)"><use fill="url(#a)" xlink:href="#b"/><use fill="#000" filter="url(#c)" xlink:href="#b"/></g><g transform="rotate(90 306.61 -16.54)"><use fill="url(#d)" xlink:href="#e"/><use fill="#000" filter="url(#f)" xlink:href="#e"/></g><g transform="rotate(-90 165.426 165.144)"><use fill="#000" filter="url(#g)" xlink:href="#h"/><use xlink:href="#h"/><use fill="url(#i)" xlink:href="#h"/><use fill="#000" filter="url(#j)" xlink:href="#h"/><rect width="323.819" height="654.677" x="2.661" y=".38" stroke="#000" stroke-opacity=".1" stroke-width=".76" rx="48.664"/></g><path fill="#000" d="M64.004 328.29V3.711h4.552v324.58zm523.44 0V3.711h4.552v324.58z" opacity=".1"/><g transform="rotate(-90 164.28 157.93)"><mask id="r" fill="#fff"><use xlink:href="#k"/></mask><use fill="#000" filter="url(#l)" xlink:href="#k"/><use fill="url(#m)" xlink:href="#k"/><use fill="url(#n)" fill-opacity=".11" xlink:href="#k"/><use fill="#000" filter="url(#o)" xlink:href="#k"/><rect width="313.178" height="644.06" x="-.38" y="-.38" stroke="url(#p)" stroke-width=".76" rx="45.622"/><path fill="url(#q)" d="M47.129 0v643.3c-26.868 0-48.65-21.78-48.65-48.649V48.65C-1.52 21.78 20.262 0 47.13 0z" mask="url(#r)" opacity=".1"/><path fill="url(#q)" d="M312.417 0v643.3c-26.868 0-48.649-21.78-48.649-48.649V48.65c0-26.87 21.782-48.65 48.65-48.65z" mask="url(#r)" opacity=".1" transform="matrix(-1 0 0 1 576.185 0)"/></g><g transform="rotate(-90 78.75 57.986)"><use fill="#000" filter="url(#s)" xlink:href="#t"/><use fill="url(#u)" xlink:href="#t"/><ellipse cx="4.941" cy="4.931" fill="url(#v)" rx="3.421" ry="3.414"/><mask id="z" fill="#fff"><use xlink:href="#w"/></mask><use fill="url(#x)" xlink:href="#w"/><path fill="url(#y)" d="M4.94 3.79c1.47 0 2.661.572 2.661.762 0-1.046-1.19-2.276-2.66-2.276-1.47 0-2.66 1.23-2.66 2.276 0-.19 1.19-.762 2.66-.762z" mask="url(#z)" opacity=".5"/></g><g transform="rotate(-90 103.454 82.69)"><use fill="#000" filter="url(#A)" xlink:href="#B"/><use fill="url(#C)" xlink:href="#B"/></g><path fill="#192431" d="M42.763 227.997V104.094c0-10.075-8.151-18.243-19.155-18.243a3.806 3.806 0 0 1-3.598-3.606l-.005-29.84c0-15.953 12.906-28.885 28.827-28.885h558.336c15.92 0 28.827 12.932 28.827 28.885v227.282c0 15.952-12.906 28.885-28.827 28.885H48.832c-15.92 0-28.827-12.933-28.827-28.885V249.85a3.806 3.806 0 0 1 3.598-3.606c11.009-.005 19.16-8.172 19.16-18.248z"/></g></svg>