<?xml version="1.0" encoding="UTF-8"?>
<svg width="24px" height="24px" viewBox="0 0 24 24" version="1.1" xmlns="http://www.w3.org/2000/svg">
    <g transform="translate(3.000000, 3.000000)">
        <path d="M11.9346328,0.000421875 L6.06536719,0.000421875 C5.81122266,0.000421875 5.58580078,0.16396875 5.50708594,0.405492188 L0.029109375,17.2307109 C-0.0941484375,17.610293 0.189492188,17.9995078 0.587390625,17.9995078 L4.75048828,17.9995078 C6.02367188,17.9995078 7.14557813,17.1859922 7.54301953,15.9742969 L12.4929141,0.768867188 C12.6161719,0.390164063 12.3333047,0.000421875 11.9346328,0.000421875 Z"
              id="Shape"></path>
        <path d="M17.9708555,17.2306758 L13.1692852,2.48305078 L9.61716797,13.394707 L10.457332,15.975457 C10.8543164,17.1860273 11.9762227,17.999543 13.2494062,17.999543 L17.4125391,17.999543 C17.8105078,17.9995078 18.0941484,17.610293 17.9708555,17.2306758 Z"
              id="Shape"></path>
    </g>
</svg>