<svg id="android" xmlns="http://www.w3.org/2000/svg" width="24" height="24" viewBox="0 0 24 24">
    <path d="M17.007 8.93H7.999c-.2 0-.363.165-.363.367v7.641c0 .203.163.367.363.367h1.606v2.576c0 .597.479 1.081 1.07 1.081.59 0 1.069-.484 1.069-1.081v-2.576h1.496v2.576c0 .597.479 1.081 1.07 1.081.59 0 1.069-.484 1.069-1.081v-2.576h1.628c.2 0 .363-.164.363-.367v-7.64a.365.365 0 0 0-.363-.368zM6.111 8.928c-.59 0-1.07.485-1.07 1.082v4.394c0 .598.48 1.082 1.07 1.082.59 0 1.07-.484 1.07-1.082V10.01c0-.597-.48-1.082-1.07-1.082zM18.895 8.928c-.591 0-1.07.485-1.07 1.082v4.394c0 .598.479 1.082 1.07 1.082.59 0 1.07-.484 1.07-1.082V10.01c0-.597-.48-1.082-1.07-1.082zM8.072 8.394h8.84c.231 0 .403-.215.356-.443a4.94 4.94 0 0 0-2.384-3.284l.756-1.38a.195.195 0 0 0-.075-.263.19.19 0 0 0-.26.076l-.761 1.39a4.814 4.814 0 0 0-2.052-.457c-.733 0-1.428.164-2.051.457L9.679 3.1a.19.19 0 0 0-.26-.076.195.195 0 0 0-.074.263l.756 1.38A4.94 4.94 0 0 0 7.717 7.95a.366.366 0 0 0 .355.443zM15.13 6.34c0 .23-.184.415-.41.415a.414.414 0 0 1-.412-.415c0-.23.184-.416.411-.416.227 0 .411.186.411.416zm-4.865-.416c.227 0 .411.186.411.416 0 .23-.184.415-.41.415a.414.414 0 0 1-.412-.415c0-.23.184-.416.411-.416z"/>
</svg>
