<svg id="dc" width="24px" height="24px" viewBox="0 0 24 24" version="1.1" xmlns="http://www.w3.org/2000/svg">
    <path d="M13.7105263,4.02518519 C12.9791667,4.02518519 12.285636,4.11333333 11.6047149,4.30222222 C15.2110746,5.23407407 17.8969298,8.47037037 17.9599781,12.3237037 L17.9599781,12.6511111 C17.8717105,14.9177778 15.9802632,16.7311111 13.7105263,16.7311111 C12.9413377,16.7311111 12.2099781,16.5296296 11.6047149,16.1644444 C10.3311404,15.4340741 9.48629386,14.0740741 9.48629386,12.4874074 C9.48629386,10.9007407 10.34375,9.56592593 11.5921053,8.81037037 C10.9742325,8.44518519 10.2554825,8.2437037 9.48629386,8.2437037 C7.19133772,8.2437037 5.3377193,10.057037 5.2620614,12.3237037 L5.2620614,12.6511111 C5.32510965,16.5296296 8.01096491,19.7659259 11.6173246,20.6725926 C12.2982456,20.8488889 13.004386,20.9496296 13.723136,20.9496296 C18.4013158,20.9496296 22.1842105,17.1592593 22.1842105,12.5 C22.1842105,7.81555556 18.3887061,4.02518519 13.7105263,4.02518519 L13.7105263,4.02518519 Z"
          id="Shape"></path>
    <path d="M17.9347588,12.3237037 C17.8717105,8.44518519 15.1858553,5.20888889 11.5794956,4.30222222 C10.8985746,4.12592593 10.1924342,4.02518519 9.47368421,4.02518519 C4.79550439,4.02518519 1,7.81555556 1,12.4874074 C1,17.1592593 4.79550439,20.937037 9.46107456,20.937037 C10.1924342,20.937037 10.8859649,20.8488889 11.566886,20.66 C7.98574561,19.7281481 5.29989035,16.517037 5.23684211,12.6385185 L5.23684211,12.3111111 C5.32510965,10.0444444 7.19133772,8.23111111 9.46107456,8.23111111 C10.2302632,8.23111111 10.9616228,8.43259259 11.566886,8.79777778 C12.8404605,9.52814815 13.6726974,10.8881481 13.6726974,12.4748148 C13.6726974,14.0614815 12.8152412,15.3962963 11.566886,16.1518519 C12.1973684,16.4918519 12.9287281,16.7185185 13.6979167,16.7185185 C15.9928728,16.7185185 17.8464912,14.9051852 17.9221491,12.6385185 L17.9221491,12.4748148 C17.9347588,12.437037 17.9347588,12.3740741 17.9347588,12.3237037 L17.9347588,12.3237037 Z"
          id="Shape"></path>
</svg>