<svg id="pause" width="24px" height="24px" viewBox="0 0 24 24" version="1.1" xmlns="http://www.w3.org/2000/svg">
    <path d="M10,18 L10,6 L10,6 C10,5.44771525 9.55228475,5 9,5 L7,5 L7,5 C6.44771525,5 6,5.44771525 6,6 L6,18 L6,18 C6,18.5522847 6.44771525,19 7,19 L9,19 L9,19 C9.55228475,19 10,18.5522847 10,18 Z M15,19 L17,19 L17,19 C17.5522847,19 18,18.5522847 18,18 L18,6 L18,6 C18,5.44771525 17.5522847,5 17,5 L15,5 L15,5 C14.4477153,5 14,5.44771525 14,6 L14,18 L14,18 C14,18.5522847 14.4477153,19 15,19 Z"></path>
</svg>