<?xml version="1.0" encoding="UTF-8"?>
<svg width="24px" height="24px" viewBox="0 0 24 24" version="1.1" xmlns="http://www.w3.org/2000/svg">
    <defs>
        <filter x="-30.0%" y="-31.6%" width="160.0%" height="163.2%" filterUnits="objectBoundingBox" id="filter-1">
            <feGaussianBlur stdDeviation="2" in="SourceGraphic"></feGaussianBlur>
        </filter>
    </defs>
    <g id="Symbols" stroke="none" stroke-width="1" fill="none" fill-rule="evenodd">
        <g id="ic/fav/w-copy-2">
            <g id="ic_grade">
                <g id="Icon-24px">
                    <path d="M12.516735,17.5818805 L16.1510004,19.7753773 L16.1510004,19.7753773 C16.6238365,20.0607621 17.238496,19.9088029 17.5238808,19.4359669 C17.6585693,19.2128101 17.7008035,18.9458833 17.6415868,18.6920461 L16.6771258,14.5578015 L16.6771258,14.5578015 C16.5927941,14.1963064 16.715641,13.8178421 16.9962048,13.5747896 L20.2086056,10.7918856 L20.2086056,10.7918856 C20.6260368,10.4302648 20.6712801,9.79871834 20.3096593,9.38128712 C20.1389779,9.18426379 19.8981093,9.06167547 19.6383695,9.03963914 L15.4108645,8.68097738 L15.4108645,8.68097738 C15.0412863,8.64962234 14.7194212,8.41628556 14.574683,8.07478584 L12.9207179,4.17236998 L12.9207179,4.17236998 C12.7052005,3.66387153 12.1182696,3.42636349 11.6097711,3.64188094 C11.3707977,3.74316532 11.1805665,3.93339651 11.0792821,4.17236998 L9.42531701,8.07478584 L9.42531701,8.07478584 C9.28057882,8.41628556 8.95871371,8.64962234 8.58913548,8.68097738 L4.36163046,9.03963914 L4.36163046,9.03963914 C3.81132267,9.08632728 3.40305828,9.57028811 3.44974643,10.1205959 C3.47178276,10.3803356 3.59437108,10.6212042 3.7913944,10.7918856 L7.00379518,13.5747896 L7.00379518,13.5747896 C7.28435896,13.8178421 7.4072059,14.1963064 7.32287419,14.5578015 L6.35841315,18.6920461 L6.35841315,18.6920461 C6.23294189,19.2298893 6.56723546,19.767612 7.10507876,19.8930833 C7.35891596,19.9523 7.6258428,19.9100658 7.84899958,19.7753773 L11.483265,17.5818805 L11.483265,17.5818805 C11.8010564,17.3900744 12.1989436,17.3900744 12.516735,17.5818805 Z"
                          id="Shape" fill="#000000" opacity="0.300000012" filter="url(#filter-1)"></path>
                    <polygon id="Shape" points="0 0 24 0 24 24 0 24"></polygon>
                </g>
            </g>
        </g>
    </g>
</svg>