<svg id="subtitle" xmlns="http://www.w3.org/2000/svg" width="24" height="24" viewBox="0 0 24 24">
    <path d="M12 23C5.373 23 1 18.627 1 12S5.373 1 12 1s11 4.373 11 11-4.373 11-11 11zm2.576-13.484l1.92-1.568a3.85 3.85 0 0 0-.832-.784 4.563 4.563 0 0 0-.968-.512 5.403 5.403 0 0 0-1.024-.28 5.995 5.995 0 0 0-1-.088c-.885 0-1.701.139-2.448.416a5.604 5.604 0 0 0-1.936 1.192 5.404 5.404 0 0 0-1.272 1.88c-.304.736-.456 1.557-.456 2.464s.152 1.728.456 2.464a5.404 5.404 0 0 0 1.272 1.88c.544.517 1.19.915 1.936 1.192a6.979 6.979 0 0 0 2.448.416c.779 0 1.536-.16 2.272-.48a4.331 4.331 0 0 0 1.824-1.488l-2.08-1.552a2.707 2.707 0 0 1-.976.896c-.395.213-.848.32-1.36.32-.448 0-.867-.09-1.256-.272a3.082 3.082 0 0 1-1.016-.76A3.638 3.638 0 0 1 9.4 13.7a4.155 4.155 0 0 1-.248-1.464c0-.523.083-1.008.248-1.456.165-.448.395-.835.688-1.16a3.12 3.12 0 0 1 1.04-.76 3.12 3.12 0 0 1 1.304-.272c.47 0 .883.08 1.24.24.357.16.659.39.904.688z"/>
</svg>
