<svg id="subtitle-off" xmlns="http://www.w3.org/2000/svg" width="24" height="24" viewBox="0 0 24 24">
    <path d="M6.233 21.638l4.144-4.143c.07.03.14.058.212.086.732.28 1.531.419 2.398.419.763 0 1.505-.161 2.226-.484a4.27 4.27 0 0 0 1.787-1.5l-2.038-1.564c-.25.387-.57.688-.956.903-.386.215-.83.322-1.332.322-.153 0-.302-.01-.447-.033l9.41-9.41C22.52 7.856 23 9.803 23 12c0 6.627-4.373 11-11 11-2.195 0-4.143-.48-5.767-1.362zm-3.088-2.654C1.767 17.155 1 14.775 1 12 1 5.373 5.373 1 12 1c2.775 0 5.155.767 6.984 2.145l-3.48 3.48a4.29 4.29 0 0 0-.534-.254 5.176 5.176 0 0 0-1.003-.282 5.711 5.711 0 0 0-.98-.089c-.867 0-1.666.14-2.398.42-.731.279-1.363.68-1.896 1.201a5.458 5.458 0 0 0-1.246 1.895C7.149 10.258 7 11.086 7 12c0 .914.149 1.742.447 2.484l.058.14-4.36 4.36zm10.53-10.531L9.57 12.559A4.907 4.907 0 0 1 9.54 12c0-.527.08-1.016.242-1.468.162-.451.387-.841.674-1.17a3.062 3.062 0 0 1 1.019-.765 2.984 2.984 0 0 1 1.277-.274c.338 0 .646.043.924.13zM20.575 3L22 4.426 3.426 23 2 21.574 20.574 3z"/>
</svg>
