<svg id="voice-off" xmlns="http://www.w3.org/2000/svg" width="24" height="24" viewBox="0 0 24 24">
    <path d="M8.778 18.05a7.129 7.129 0 0 0 2.235.737v2.193h1.994v-2.193c3.29-.503 5.983-3.318 5.983-6.737h-1.695c0 3.016-2.493 5.128-5.285 5.128a5.5 5.5 0 0 1-1.989-.371L8.778 18.05zm-2.886-2.77a6.503 6.503 0 0 1-.863-3.23h1.696c0 .723.143 1.395.4 1.997L5.891 15.28zm5.879-.222L15 11.827v.223c0 1.71-1.296 3.016-2.991 3.016-.08 0-.16-.002-.24-.008zM9.02 12.152a3.357 3.357 0 0 1-.002-.102V6.017C9.018 4.307 10.315 3 12.01 3S15 4.307 15 6.017v.153L9.02 12.152zM20.5 2.086L21.914 3.5 3.5 21.914 2.086 20.5 20.5 2.086z"/>
</svg>
